<?xml version="1.0" standalone="no"?>
<!DOCTYPE svg PUBLIC "-//W3C//DTD SVG 1.1//EN" "http://www.w3.org/Graphics/SVG/1.1/DTD/svg11.dtd" >
<svg xmlns="http://www.w3.org/2000/svg">
<metadata>
This is a custom SVG webfont generated by Font Squirrel.
Copyright   : DinerRegular c 1992 by David Rakowski All Rights Reserved 
</metadata>
<defs>
<font id="webfont0Et1RBkJ" horiz-adv-x="296" >
<font-face units-per-em="2048" ascent="1638" descent="-410" />
<missing-glyph horiz-adv-x="500" />
<glyph unicode=" " />
<glyph unicode="!" horiz-adv-x="122" d="M20 43q0 18 13.5 31.5t32.5 13.5q18 0 31.5 -13.5t13.5 -31.5t-13.5 -30.5t-31.5 -12.5t-32 12.5t-14 30.5zM41 150v1488h37v-1488h-37z" />
<glyph unicode="&#x22;" horiz-adv-x="231" d="M4 1477q2 6 5 13t5 15t5.5 15.5t5.5 15.5q6 20 10 38.5t4 31.5v2q-2 0 -3 1t-1 3q-6 4 -10 10l-9 12q-2 4 -3 8.5t-1 8.5q0 18 14.5 32.5t32.5 14.5t32.5 -14.5t14.5 -32.5v-4q-2 -20 -22.5 -52t-79.5 -118zM115 1477q2 6 5 13t5 15t5 15.5t5 15.5q6 20 10.5 38.5 t4.5 31.5v2q-2 0 -3.5 1t-1.5 3q-6 4 -10 10l-8 12q-2 4 -3 8.5t-1 8.5q0 18 14.5 32.5t32.5 14.5t32.5 -14.5t14.5 -32.5v-4q-2 -20 -22.5 -52t-79.5 -118z" />
<glyph unicode="#" />
<glyph unicode="$" />
<glyph unicode="%" />
<glyph unicode="&#x26;" horiz-adv-x="450" d="M27 147v529q0 51 19.5 87t64.5 52q-33 6 -52.5 36t-25.5 64q-2 10 -3 20.5t-1 20.5v539q0 59 47 97t102 44q6 2 12 2h13q66 0 118 -38.5t52 -104.5v-205h-35v205q0 47 -36 80t-95 33q-51 -2 -95 -34t-44 -81v-537v-9v-9q4 -39 28.5 -71.5t81.5 -32.5h109v-31h-109 q-8 0 -17 -2l-18 -4q-31 -10 -55.5 -41t-24.5 -82v-527q0 -47 32 -75.5t71 -36.5q8 -2 17.5 -3t17.5 -1h7h5q49 4 84 38.5t35 80.5v288h-111v33h203v-33h-57v-291v-5v-5q-4 -51 -45 -94t-111 -43h-5h-7h-5h-6q-61 4 -111 39.5t-50 107.5z" />
<glyph unicode="'" horiz-adv-x="120" d="M4 1477q2 6 5 13t5 15t5.5 15.5t5.5 15.5q6 20 10 38.5t4 31.5v2q-2 0 -3 1t-1 3q-6 4 -10 10l-9 12q-2 4 -3 8.5t-1 8.5q0 18 14.5 32.5t32.5 14.5t32.5 -14.5t14.5 -32.5v-4q-2 -20 -22.5 -52t-79.5 -118z" />
<glyph unicode="(" horiz-adv-x="233" d="M14 807q0 63 6.5 134t16.5 144q10 68 22 136l25 129q27 123 49 205l23 83h41l-23 -83q-23 -83 -49 -205l-25 -129q-12 -68 -22 -136q-10 -74 -16.5 -144.5t-6.5 -133.5q0 -61 7.5 -130t17.5 -138q8 -66 20 -129l25 -123q27 -123 49 -205l23 -82h-41l-23 82 q-23 82 -49 205l-25 123q-12 63 -20 129q-10 70 -17.5 138.5t-7.5 129.5z" />
<glyph unicode=")" horiz-adv-x="233" d="M16 0l23 82q23 82 49 205l25 123q12 63 20 129q10 70 17.5 138t7.5 130q0 63 -6.5 134t-16.5 144q-10 68 -22 136l-25 129q-27 123 -49 205l-23 83h41l23 -83q23 -83 49 -205l25 -129q12 -68 22 -136q10 -74 16.5 -144.5t6.5 -133.5q0 -61 -7.5 -130t-17.5 -138 q-8 -66 -20 -129l-25 -123q-27 -123 -49 -205l-23 -82h-41z" />
<glyph unicode="*" />
<glyph unicode="+" />
<glyph unicode="," horiz-adv-x="120" d="M4 -125q2 6 5 13.5t5 15.5t5.5 15t5.5 15q6 20 10 38t4 30v2q-2 0 -3 1t-1 3q-6 4 -10 10l-9 13q-2 4 -3 8t-1 8q0 18 14.5 32.5t32.5 14.5t32.5 -14t14.5 -33v-1v-3q-2 -20 -22 -51z" />
<glyph unicode="-" horiz-adv-x="350" d="M31 676v31h297v-31h-297z" />
<glyph unicode="." horiz-adv-x="120" d="M12 47q0 18 14.5 32.5t32.5 14.5t32.5 -14t14.5 -32.5t-14 -33t-33 -14.5q-18 0 -32.5 14.5t-14.5 32.5z" />
<glyph unicode="/" />
<glyph unicode="0" horiz-adv-x="413" d="M29 152v1341q0 63 54 104t124 41t119 -42t49 -103v-1343q0 -90 -50.5 -120t-111.5 -30h-4h-3q-69 2 -123 32t-54 120zM74 152q0 -57 33.5 -90t97.5 -33q63 0 95 31.5t32 89.5v1343q0 49 -37 81t-82 34h-3h-3h-3h-3q-47 -2 -87 -35t-40 -78v-1343z" />
<glyph unicode="1" horiz-adv-x="106" d="M27 0v1638h41v-1638h-41z" />
<glyph unicode="2" horiz-adv-x="391" d="M29 0v481q0 57 45 95t100 51q10 2 22.5 4t22.5 2q45 2 78 40t33 136v686q0 47 -37 78t-90 31q-55 0 -94 -32t-39 -79v-205h-41v207q0 57 49 100t123 43q8 0 16 -1t16 -1q51 -8 94.5 -44t43.5 -99v-686q0 -86 -40 -147.5t-112 -61.5q-8 0 -16 -1t-19 -3q-43 -10 -79.5 -41 t-36.5 -74v-450h294v-29h-333z" />
<glyph unicode="3" horiz-adv-x="380" d="M18 152v192h37v-192q0 -49 41 -86t92 -37q53 0 91 34.5t38 90.5v489q0 59 -24.5 101t-83.5 42h-172v45h176q49 0 76.5 41t27.5 119v500q0 41 -34.5 71.5t-81.5 34.5h-3h-4h-4q-49 0 -86.5 -28.5t-37.5 -75.5v-211h-43v209q0 66 53 106.5t117 40.5h7h5q63 -4 109 -45 t46 -102v-500q0 -72 -16 -114.5t-68 -65.5q43 -18 59.5 -48t20.5 -63q2 -14 2 -26v-25v-4v-4v-481q0 -68 -52 -114t-118 -46h-3h-4h-3q-61 0 -110.5 42t-49.5 110z" />
<glyph unicode="4" horiz-adv-x="460" d="M20 522v41l179 1075h34l-176 -1083h250v1083h41v-1083h86v-33h-82v-522h-47v522h-285z" />
<glyph unicode="5" horiz-adv-x="391" d="M18 150v192h37v-192q0 -49 42 -84t96 -37q53 0 93 35.5t40 85.5v659q0 10 -1 20.5t-3 20.5q-12 45 -46 84t-86 39h-167v665h348q2 0 2 -3v-5v-4v-7v-7q-2 -2 -2 -4v-2h-312v-600h134q76 0 119.5 -58.5t47.5 -126.5v-7v-5v-662q0 -57 -44 -97t-97 -48q-6 -2 -12 -2h-12 q-68 0 -122.5 43.5t-54.5 106.5z" />
<glyph unicode="6" horiz-adv-x="393" d="M18 152v1343q0 55 51.5 94t114.5 47q6 2 13 2h12q68 0 118 -41t50 -104v-205h-41v205q0 6 -1 13t-3 16q-10 31 -42 57.5t-81 26.5q-61 0 -101 -31t-47 -70v-5v-5v-577q18 29 50 45t65 22q10 0 18.5 1t16.5 1q12 0 24.5 -2t26.5 -8q37 -14 68.5 -54t31.5 -118v-655 q0 -68 -53 -109t-121 -41q-70 0 -120 42t-50 110zM61 150q0 -51 38 -85t87 -34h5h6q47 4 86 39.5t39 79.5v657q0 8 -1.5 15t-1.5 16q-8 43 -34.5 78.5t-71.5 35.5q-10 0 -21.5 -1t-21.5 -3q-41 -8 -75 -39.5t-34 -99.5v-659z" />
<glyph unicode="7" horiz-adv-x="387" d="M18 0l308 1606h-273v32h322l-318 -1638h-39z" />
<glyph unicode="8" horiz-adv-x="393" d="M25 147v553q0 43 26.5 71t59.5 52q-41 16 -62.5 52t-23.5 75v5v6v530q0 66 52 105.5t116 41.5h3h3q66 -2 114.5 -34.5t48.5 -110.5v-532q0 -63 -25.5 -92t-60.5 -46q35 -16 60.5 -45.5t25.5 -77.5v-550q0 -70 -45 -110t-122 -40q-76 0 -123 40.5t-47 106.5zM63 150 q0 -49 40 -84t87 -37h4h3q51 0 90 33.5t39 87.5v550q0 53 -38 79t-91 26q-6 0 -12.5 -1t-10.5 -1q-43 -8 -77 -37t-34 -68v-548zM63 961q0 -53 37 -87t97 -34q59 0 94 36.5t35 84.5v532q0 39 -33 69.5t-74 39.5q-6 0 -11 1t-11 1q-51 0 -92.5 -33t-41.5 -82v-528z" />
<glyph unicode="9" horiz-adv-x="397" d="M20 150v194h35v-194v-9q0 -4 2 -6q6 -41 42 -73.5t96 -32.5q55 0 95 35.5t40 85.5v569q-23 -27 -61 -46.5t-81 -21.5h-5h-5q-66 0 -101.5 32t-47.5 69l-4 21q-2 11 -2 22v698q0 63 51 102t114 43h6h5h10q6 0 10 -2q55 -4 101.5 -40.5t46.5 -102.5v-1343 q0 -63 -52.5 -105.5t-115.5 -44.5h-3h-3h-4h-4h-3q-63 0 -112.5 42t-49.5 108zM68 797q0 -45 26.5 -78t83.5 -33q10 0 21.5 2t21.5 4q41 12 75 40t34 63v696q0 47 -35 76.5t-76 36.5q-6 2 -11 2h-9q-49 0 -90 -30t-41 -85v-694z" />
<glyph unicode=":" horiz-adv-x="169" d="M25 197q0 18 14 32.5t33 14.5q18 0 32.5 -14.5t14.5 -33t-14.5 -32.5t-32.5 -14t-32.5 14.5t-14.5 32.5zM25 633q0 18 14 32.5t33 14.5q18 0 32.5 -14.5t14.5 -33t-14.5 -32.5t-32.5 -14t-32.5 14.5t-14.5 32.5z" />
<glyph unicode=";" horiz-adv-x="169" d="M41 23q2 6 5 13t5 15t5 15.5t5 15.5q6 20 10.5 38.5t4.5 31.5v2q-2 0 -3 1t-1 3q-6 4 -11 10l-8 12q-2 4 -3 8.5t-1 8.5q0 18 14.5 32.5t32.5 14.5t32.5 -14.5t14.5 -32.5v-4q-2 -20 -22.5 -52t-79.5 -118zM49 633q0 18 14.5 32.5t32.5 14.5t32.5 -14.5t14.5 -33 t-14 -32.5t-33 -14q-18 0 -32.5 14.5t-14.5 32.5z" />
<glyph unicode="&#x3c;" />
<glyph unicode="=" />
<glyph unicode="&#x3e;" />
<glyph unicode="?" horiz-adv-x="415" d="M37 1290v203q0 59 53 102t129 43q2 0 27.5 -2t56.5 -16q31 -12 57.5 -43t26.5 -86v-860q0 -68 -29.5 -107t-66.5 -61q-20 -12 -40 -19.5t-34 -11.5v-282h-39v317q12 2 33.5 8t46.5 19q33 18 61.5 52t28.5 89l2 856q0 47 -40 77.5t-89 35.5h-3h-4h-3q-57 0 -97 -35 t-40 -76v-203h-37zM150 47q0 18 14 32.5t33 14.5q18 0 32.5 -14t14.5 -32.5t-14.5 -33t-32.5 -14.5t-32.5 14.5t-14.5 32.5z" />
<glyph unicode="@" />
<glyph unicode="A" horiz-adv-x="468" d="M29 676v31h94l110 931h33l180 -1638h-32l-80 676h-178l-76 -676h-39l76 676h-88zM158 707h172l-80 778z" />
<glyph unicode="B" horiz-adv-x="499" d="M25 676v31h104v931h190q57 0 100.5 -37.5t43.5 -107.5v-688q0 -39 -20.5 -66.5t-57.5 -48.5q6 -4 11 -7t10 -5q27 -16 46 -40t19 -83v-405q0 -61 -44 -105.5t-99 -44.5h-197v676h-106zM166 707h162q35 0 65.5 29.5t32.5 64.5v3v3v686q0 43 -25.5 71.5t-56.5 37.5 q-6 2 -12 3t-13 1h-27h-61h-5h-5h-30h-25v-46v-122v-168v-193v-198v-172zM168 29h31h37h62h28h5h5q33 6 60.5 34.5t37.5 63.5q0 6 1 11t1 12v403q0 37 -16.5 60.5t-36.5 37.5t-37 20l-16 5h-162v-647z" />
<glyph unicode="C" horiz-adv-x="380" d="M25 150v1343q0 72 49 107.5t106 37.5h3h3h3h4q59 -2 109 -44t50 -101v-197h-30v197q0 47 -39 81t-97 34q-63 0 -88.5 -23.5t-31.5 -52.5q-2 -10 -3.5 -20.5t-1.5 -18.5v-1346q0 -57 36 -85.5t77 -32.5h8h8q53 0 95.5 32.5t42.5 90.5v184h34v-186q0 -59 -45 -104.5 t-116 -45.5h-3h-4h-4q-12 0 -23 1t-24 3q-45 10 -81.5 42t-36.5 104z" />
<glyph unicode="D" horiz-adv-x="399" d="M41 0v1638h192h4h3q53 -2 98 -43t45 -104v-1344q0 -57 -35 -102t-117 -45h-190zM78 31h151q57 0 86 34.5t31 75.5v3v3v1346q0 31 -21.5 57.5t-45.5 40.5q-12 6 -23.5 10.5t-22.5 4.5h-155v-1575z" />
<glyph unicode="E" horiz-adv-x="471" d="M23 676v31h98v931h313v-32h-272v-899h280v-31h-280v-647h280v-29h-319v676h-100z" />
<glyph unicode="F" horiz-adv-x="460" d="M31 676v31h94v931h309v-32h-270v-899h274v-31h-274v-676h-39v676h-94z" />
<glyph unicode="G" horiz-adv-x="399" d="M18 150v1343q0 72 50.5 106.5t111.5 38.5h5h5q72 0 120 -36.5t48 -108.5v-195h-34v195q0 6 -1 12t-4 13q-10 35 -44.5 62.5t-84.5 27.5q-59 0 -97 -34t-38 -81v-1343q0 -55 39 -88t90 -33q61 0 101.5 35.5t40.5 87.5v524h-105v31h6h36h95v-557q0 -70 -53 -110t-123 -40 q-63 0 -113.5 43.5t-50.5 106.5z" />
<glyph unicode="H" horiz-adv-x="514" d="M33 676v31h82v931h41v-931h272v931h39v-1638h-37v676h-276v-676h-37v676h-84z" />
<glyph unicode="I" horiz-adv-x="106" d="M27 0v1638h41v-1638h-41z" />
<glyph unicode="J" horiz-adv-x="385" d="M20 150v194h39v-194q0 -45 38 -81t89 -38h3h1h4h3q47 2 87 34.5t40 84.5v1488h43v-1488q0 -66 -46.5 -103t-99.5 -45q-8 0 -16 -1t-17 -1q-68 0 -118 40t-50 110z" />
<glyph unicode="K" horiz-adv-x="628" d="M29 678v29h94v931h35v-931h155q53 0 85 26.5t32 73.5v831h35v-831q0 -43 -20.5 -78t-61.5 -39q37 -12 59.5 -39.5t22.5 -95.5v-405q0 -47 18.5 -71t38.5 -34q18 -8 33.5 -10t22.5 -2h3l3 -35q-12 2 -27.5 3t-32.5 7q-37 10 -66.5 41t-29.5 101v405q0 6 -1 14.5t-1 14.5 q-8 35 -33.5 63.5t-77.5 28.5h-155v-674h-4h-11q-2 -2 -3 -2h-3h-9h-7v678h-94z" />
<glyph unicode="L" horiz-adv-x="348" d="M18 0v1638h37v-1609h271v-29h-308z" />
<glyph unicode="M" horiz-adv-x="774" d="M35 0v1638h39l303 -1513l317 1513h33v-1638h-37v1405l-305 -1405h-16l-295 1397v-1397h-39z" />
<glyph unicode="N" horiz-adv-x="428" d="M43 0v1638h41l268 -1431v1431h39v-1636l-43 -2l-264 1397v-1397h-41z" />
<glyph unicode="O" horiz-adv-x="413" d="M29 152v1341q0 63 54 104t124 41t119 -42t49 -103v-1343q0 -90 -50.5 -120t-111.5 -30h-4h-3q-69 2 -123 32t-54 120zM70 152q0 -57 35.5 -90t99.5 -33q63 0 97 31.5t34 89.5v1343q0 47 -36 78t-77 37h-8h-8h-8h-9q-45 -6 -82.5 -38t-37.5 -75v-1343z" />
<glyph unicode="P" horiz-adv-x="512" d="M20 676v31h99v931h184q10 0 19.5 -1t19.5 -1q45 -6 81 -35.5t36 -107.5v-684q0 -57 -37 -95t-121 -38h-143v-676h-39v676h-99zM158 707h141q51 0 86 25.5t35 76.5v684q0 70 -36 91.5t-81 21.5h-145v-899z" />
<glyph unicode="Q" horiz-adv-x="423" d="M39 150v1345q0 74 47 107.5t104 35.5h4h3h3h3q61 -2 112.5 -36.5t51.5 -110.5v-1344q0 -18 -2.5 -30.5t-12.5 -22.5l82 -67l-20 -27l-82 66q-18 -27 -44 -41.5t-52 -20.5q-10 -2 -20.5 -3t-20.5 -1q-70 0 -113 33t-43 117zM76 150q0 -63 29.5 -90t87.5 -31q8 0 18 1t20 3 q23 4 43.5 16t30.5 39l-106 82l22 27l103 -80q4 4 5 8t1 10v8v7v1343q0 51 -39 82t-92 31q-51 0 -87 -29t-36 -84v-1343z" />
<glyph unicode="R" horiz-adv-x="610" d="M29 678v29h94v931h196q59 0 102.5 -43t43.5 -102v-686q0 -43 -20.5 -78t-61.5 -39q37 -12 59.5 -39.5t22.5 -95.5v-405q0 -47 18.5 -71t38.5 -34q18 -8 33.5 -10t22.5 -2h3l3 -35q-12 2 -27.5 3t-32.5 7q-37 10 -66.5 41t-29.5 101v405q0 6 -1 14.5t-1 14.5 q-8 35 -33.5 63.5t-77.5 28.5h-155v-674h-4h-11q-2 -2 -3 -2h-3h-9h-7v678h-94zM158 707h155q53 0 85 26.5t32 73.5v686q0 47 -31.5 80t-76.5 33h-164v-899z" />
<glyph unicode="S" horiz-adv-x="389" d="M18 147v189h35v-186q0 -49 38 -85t95 -36q55 0 95.5 34.5t40.5 88.5v401q0 55 -36 76.5t-81 23.5q-14 0 -30.5 2t-33.5 7q-43 12 -77.5 43.5t-34.5 101.5v686q0 59 37.5 93t83.5 46q14 2 26 4t25 2h2h1q71 -2 119 -40.5t48 -104.5v-186h-33v184q0 47 -39 82t-94 35 q-6 0 -13.5 -1t-13.5 -1q-43 -8 -77.5 -37t-34.5 -76v-686q0 -63 35.5 -91t78.5 -32q4 -2 10 -2h13h9h11q49 -4 90 -32.5t41 -96.5v-403q0 -61 -48 -103.5t-120 -46.5q-76 0 -122 46t-46 101z" />
<glyph unicode="T" horiz-adv-x="395" d="M35 1606v32h338v-32h-146v-1606h-41v1606h-151z" />
<glyph unicode="U" horiz-adv-x="399" d="M25 150v1488h36v-1488q0 -49 38 -82t83 -39h8h9q53 0 96 32.5t43 85.5v1491h37v-1491q0 -53 -38 -88.5t-83 -50.5q-14 -4 -27.5 -6t-25.5 -2q-70 0 -123 39t-53 111z" />
<glyph unicode="V" horiz-adv-x="446" d="M20 1638h37l140 -1425l192 1425h37l-219 -1638h-31z" />
<glyph unicode="W" horiz-adv-x="722" d="M29 1638h39l145 -1388l133 1388h39l141 -1380l129 1380h37l-153 -1638h-31l-148 1403l-135 -1403h-30z" />
<glyph unicode="X" horiz-adv-x="485" d="M18 0l185 809l-174 829h45l149 -737l187 737h41l-205 -829l198 -809h-38l-181 727l-162 -727h-45z" />
<glyph unicode="Y" horiz-adv-x="452" d="M20 1638h43l138 -931l161 931h44l-193 -1085v-557l-35 4v555z" />
<glyph unicode="Z" horiz-adv-x="389" d="M18 0v29l312 1577h-285v32h328l-318 -1609h291v-29h-328z" />
<glyph unicode="[" />
<glyph unicode="\" />
<glyph unicode="]" />
<glyph unicode="^" />
<glyph unicode="_" />
<glyph unicode="`" />
<glyph unicode="a" horiz-adv-x="505" d="M27 676v31h98v786q0 66 44 100.5t97 42.5q8 0 17.5 1t17.5 1q12 0 26.5 -2t28.5 -6q43 -12 80 -47t37 -90v-1493h-39v676h-268v-676h-41v676h-98zM166 707h268v788q0 33 -25.5 58.5t-54.5 39.5q-14 6 -26.5 9.5t-22.5 3.5h-2q-6 0 -12 -1t-10 -1q-43 -6 -79 -32t-36 -77 v-788z" />
<glyph unicode="b" horiz-adv-x="499" d="M25 676v31h104v931h190q57 0 100.5 -37.5t43.5 -107.5v-688q0 -39 -20.5 -66.5t-57.5 -48.5q6 -4 11 -7t10 -5q27 -16 46 -40t19 -83v-405q0 -61 -44 -105.5t-99 -44.5h-197v676h-106zM166 707h162q35 0 65.5 29.5t32.5 64.5v3v3v686q0 43 -25.5 71.5t-56.5 37.5 q-6 2 -12 3t-13 1h-27h-61h-5h-5h-30h-25v-46v-122v-168v-193v-198v-172zM168 29h31h37h62h28h5h5q33 6 60.5 34.5t37.5 63.5q0 6 1 11t1 12v403q0 37 -16.5 60.5t-36.5 37.5t-37 20l-16 5h-162v-647z" />
<glyph unicode="c" horiz-adv-x="380" d="M25 150v1343q0 72 49 107.5t106 37.5h3h3h3h4q59 -2 109 -44t50 -101v-197h-30v197q0 47 -39 81t-97 34q-63 0 -88.5 -23.5t-31.5 -52.5q-2 -10 -3.5 -20.5t-1.5 -18.5v-1346q0 -57 36 -85.5t77 -32.5h8h8q53 0 95.5 32.5t42.5 90.5v184h34v-186q0 -59 -45 -104.5 t-116 -45.5h-3h-4h-4q-12 0 -23 1t-24 3q-45 10 -81.5 42t-36.5 104z" />
<glyph unicode="d" horiz-adv-x="399" d="M41 0v1638h192h4h3q53 -2 98 -43t45 -104v-1344q0 -57 -35 -102t-117 -45h-190zM78 31h151q57 0 86 34.5t31 75.5v3v3v1346q0 31 -21.5 57.5t-45.5 40.5q-12 6 -23.5 10.5t-22.5 4.5h-155v-1575z" />
<glyph unicode="e" horiz-adv-x="471" d="M23 676v31h98v931h313v-32h-272v-899h280v-31h-280v-647h280v-29h-319v676h-100z" />
<glyph unicode="f" horiz-adv-x="460" d="M31 676v31h94v931h309v-32h-270v-899h274v-31h-274v-676h-39v676h-94z" />
<glyph unicode="g" horiz-adv-x="399" d="M18 150v1343q0 72 50.5 106.5t111.5 38.5h5h5q72 0 120 -36.5t48 -108.5v-195h-34v195q0 6 -1 12t-4 13q-10 35 -44.5 62.5t-84.5 27.5q-59 0 -97 -34t-38 -81v-1343q0 -55 39 -88t90 -33q61 0 101.5 35.5t40.5 87.5v524h-105v31h6h36h95v-557q0 -70 -53 -110t-123 -40 q-63 0 -113.5 43.5t-50.5 106.5z" />
<glyph unicode="h" horiz-adv-x="514" d="M33 676v31h82v931h41v-931h272v931h39v-1638h-37v676h-276v-676h-37v676h-84z" />
<glyph unicode="i" horiz-adv-x="106" d="M27 0v1638h41v-1638h-41z" />
<glyph unicode="j" horiz-adv-x="385" d="M20 150v194h39v-194q0 -45 38 -81t89 -38h3h1h4h3q47 2 87 34.5t40 84.5v1488h43v-1488q0 -66 -46.5 -103t-99.5 -45q-8 0 -16 -1t-17 -1q-68 0 -118 40t-50 110z" />
<glyph unicode="k" horiz-adv-x="497" d="M27 676v31h98v931h37v-931h102l156 931h35l-154 -931q66 -2 115 -47.5t49 -104.5v-555h-35v555q0 8 -2 16.5t-6 16.5q-14 33 -52 60.5t-91 27.5h-115v-676h-39v676h-98z" />
<glyph unicode="l" horiz-adv-x="348" d="M18 0v1638h37v-1609h271v-29h-308z" />
<glyph unicode="m" horiz-adv-x="724" d="M27 0v1495q0 63 51 103t115 40q51 0 97 -20.5t66 -65.5q14 33 43 51.5t62 26.5q14 4 28.5 6t26.5 2q66 -2 114 -44t48 -101v-1493h-41v1491q0 47 -35 79t-86 36h-6h-8q-49 0 -87 -32t-38 -81v-1493h-43v1495q0 47 -42 79t-102 34h-3h-1q-49 0 -83.5 -33t-34.5 -80v-1495 h-41z" />
<glyph unicode="n" horiz-adv-x="428" d="M43 0v1638h41l268 -1431v1431h39v-1636l-43 -2l-264 1397v-1397h-41z" />
<glyph unicode="o" horiz-adv-x="413" d="M29 152v1341q0 63 54 104t124 41t119 -42t49 -103v-1343q0 -90 -50.5 -120t-111.5 -30h-4h-3q-69 2 -123 32t-54 120zM70 152q0 -57 35.5 -90t99.5 -33q63 0 97 31.5t34 89.5v1343q0 47 -36 78t-77 37h-8h-8h-8h-9q-45 -6 -82.5 -38t-37.5 -75v-1343z" />
<glyph unicode="p" horiz-adv-x="512" d="M20 676v31h99v931h184q10 0 19.5 -1t19.5 -1q45 -6 81 -35.5t36 -107.5v-684q0 -57 -37 -95t-121 -38h-143v-676h-39v676h-99zM158 707h141q51 0 86 25.5t35 76.5v684q0 70 -36 91.5t-81 21.5h-145v-899z" />
<glyph unicode="q" horiz-adv-x="423" d="M39 150v1345q0 74 47 107.5t104 35.5h4h3h3h3q61 -2 112.5 -36.5t51.5 -110.5v-1344q0 -18 -2.5 -30.5t-12.5 -22.5l82 -67l-20 -27l-82 66q-18 -27 -44 -41.5t-52 -20.5q-10 -2 -20.5 -3t-20.5 -1q-70 0 -113 33t-43 117zM76 150q0 -63 29.5 -90t87.5 -31q8 0 18 1t20 3 q23 4 43.5 16t30.5 39l-106 82l22 27l103 -80q4 4 5 8t1 10v8v7v1343q0 51 -39 82t-92 31q-51 0 -87 -29t-36 -84v-1343z" />
<glyph unicode="r" horiz-adv-x="610" d="M29 678v29h94v931h196q59 0 102.5 -43t43.5 -102v-686q0 -43 -20.5 -78t-61.5 -39q37 -12 59.5 -39.5t22.5 -95.5v-405q0 -47 18.5 -71t38.5 -34q18 -8 33.5 -10t22.5 -2h3l3 -35q-12 2 -27.5 3t-32.5 7q-37 10 -66.5 41t-29.5 101v405q0 6 -1 14.5t-1 14.5 q-8 35 -33.5 63.5t-77.5 28.5h-155v-674h-4h-11q-2 -2 -3 -2h-3h-9h-7v678h-94zM158 707h155q53 0 85 26.5t32 73.5v686q0 47 -31.5 80t-76.5 33h-164v-899z" />
<glyph unicode="s" horiz-adv-x="389" d="M18 147v189h35v-186q0 -49 38 -85t95 -36q55 0 95.5 34.5t40.5 88.5v401q0 55 -36 76.5t-81 23.5q-14 0 -30.5 2t-33.5 7q-43 12 -77.5 43.5t-34.5 101.5v686q0 59 37.5 93t83.5 46q14 2 26 4t25 2h2h1q71 -2 119 -40.5t48 -104.5v-186h-33v184q0 47 -39 82t-94 35 q-6 0 -13.5 -1t-13.5 -1q-43 -8 -77.5 -37t-34.5 -76v-686q0 -63 35.5 -91t78.5 -32q4 -2 10 -2h13h9h11q49 -4 90 -32.5t41 -96.5v-403q0 -61 -48 -103.5t-120 -46.5q-76 0 -122 46t-46 101z" />
<glyph unicode="t" horiz-adv-x="395" d="M35 1606v32h338v-32h-146v-1606h-41v1606h-151z" />
<glyph unicode="u" horiz-adv-x="399" d="M25 150v1488h36v-1488q0 -49 38 -82t83 -39h8h9q53 0 96 32.5t43 85.5v1491h37v-1491q0 -53 -38 -88.5t-83 -50.5q-14 -4 -27.5 -6t-25.5 -2q-70 0 -123 39t-53 111z" />
<glyph unicode="v" horiz-adv-x="446" d="M20 1638h37l140 -1425l192 1425h37l-219 -1638h-31z" />
<glyph unicode="w" horiz-adv-x="733" d="M37 145v1493h41v-1491q0 -45 34.5 -77.5t86.5 -36.5h7h7q49 0 87 31.5t38 80.5v1493h43v-1495q0 -47 43 -78.5t100 -33.5h3q50 0 85 33.5t35 78.5v1495h41v-1495q0 -63 -50 -103t-116 -40q-51 0 -96 20.5t-68 65.5q-14 -33 -42.5 -51.5t-61.5 -26.5q-14 -4 -28.5 -6 t-26.5 -2q-63 4 -112.5 46t-49.5 99z" />
<glyph unicode="x" horiz-adv-x="485" d="M18 0l185 809l-174 829h45l149 -737l187 737h41l-205 -829l198 -809h-38l-181 727l-162 -727h-45z" />
<glyph unicode="y" horiz-adv-x="397" d="M18 152v190h43v-188v-10q0 -5 2 -9q6 -41 40 -74.5t90 -33.5q63 0 97 36.5t34 88.5v575q-18 -27 -54.5 -37t-76.5 -12h-4h-3q-10 0 -20 1t-21 3q-41 10 -74.5 39t-33.5 86v831h41v-829q0 -47 33.5 -74.5t78.5 -27.5q59 0 95.5 27.5t36.5 74.5v829h43v-1493 q0 -66 -51.5 -105.5t-123.5 -39.5q-74 0 -123 44.5t-49 107.5z" />
<glyph unicode="z" horiz-adv-x="389" d="M18 0v29l312 1577h-285v32h328l-318 -1609h291v-29h-328z" />
<glyph unicode="{" />
<glyph unicode="|" />
<glyph unicode="}" />
<glyph unicode="~" />
<glyph unicode="&#xa0;" />
<glyph unicode="&#xa2;" horiz-adv-x="933" />
<glyph unicode="&#xa3;" horiz-adv-x="933" />
<glyph unicode="&#xa5;" horiz-adv-x="933" />
<glyph unicode="&#xa9;" horiz-adv-x="933" />
<glyph unicode="&#xad;" horiz-adv-x="350" d="M31 676v31h297v-31h-297z" />
<glyph unicode="&#xae;" horiz-adv-x="933" />
<glyph unicode="&#xb4;" horiz-adv-x="933" />
<glyph unicode="&#x2000;" horiz-adv-x="847" />
<glyph unicode="&#x2001;" horiz-adv-x="1697" />
<glyph unicode="&#x2002;" horiz-adv-x="847" />
<glyph unicode="&#x2003;" horiz-adv-x="1697" />
<glyph unicode="&#x2004;" horiz-adv-x="565" />
<glyph unicode="&#x2005;" horiz-adv-x="423" />
<glyph unicode="&#x2006;" horiz-adv-x="282" />
<glyph unicode="&#x2007;" horiz-adv-x="282" />
<glyph unicode="&#x2008;" horiz-adv-x="210" />
<glyph unicode="&#x2009;" horiz-adv-x="337" />
<glyph unicode="&#x200a;" horiz-adv-x="94" />
<glyph unicode="&#x2010;" horiz-adv-x="350" d="M31 676v31h297v-31h-297z" />
<glyph unicode="&#x2011;" horiz-adv-x="350" d="M31 676v31h297v-31h-297z" />
<glyph unicode="&#x2012;" horiz-adv-x="350" d="M31 676v31h297v-31h-297z" />
<glyph unicode="&#x2013;" horiz-adv-x="933" />
<glyph unicode="&#x2014;" horiz-adv-x="933" />
<glyph unicode="&#x2018;" horiz-adv-x="933" />
<glyph unicode="&#x2019;" horiz-adv-x="933" />
<glyph unicode="&#x201c;" horiz-adv-x="933" />
<glyph unicode="&#x201d;" horiz-adv-x="933" />
<glyph unicode="&#x2022;" horiz-adv-x="933" />
<glyph unicode="&#x2026;" horiz-adv-x="933" />
<glyph unicode="&#x202f;" horiz-adv-x="337" />
<glyph unicode="&#x205f;" horiz-adv-x="423" />
<glyph unicode="&#x2122;" horiz-adv-x="933" />
<glyph unicode="&#xe000;" horiz-adv-x="1640" d="M0 1640h1640v-1640h-1640v1640z" />
<glyph unicode="&#xfb01;" horiz-adv-x="567" d="M488 0v1638h41v-1638h-41zM31 676v31h94v931h309v-32h-270v-899h274v-31h-274v-676h-39v676h-94z" />
<glyph unicode="&#xfb02;" horiz-adv-x="808" d="M479 0v1638h37v-1609h271v-29h-308zM31 676v31h94v931h309v-32h-270v-899h274v-31h-274v-676h-39v676h-94z" />
<glyph unicode="&#xfb03;" horiz-adv-x="1028" d="M949 0v1638h41v-1638h-41zM492 676v31h94v931h309v-32h-270v-899h274v-31h-274v-676h-39v676h-94zM31 676v31h94v931h309v-32h-270v-899h274v-31h-274v-676h-39v676h-94z" />
<glyph unicode="&#xfb04;" horiz-adv-x="1269" d="M940 0v1638h37v-1609h271v-29h-308zM492 676v31h94v931h309v-32h-270v-899h274v-31h-274v-676h-39v676h-94zM31 676v31h94v931h309v-32h-270v-899h274v-31h-274v-676h-39v676h-94z" />
</font>
</defs>
</svg>
